<svg width="19" height="19" viewBox="0 0 19 19" fill="none" xmlns="http://www.w3.org/2000/svg">
<g clip-path="url(#clip0_89_586)">
<path d="M5.91064 16.563C12.7031 16.563 16.4183 10.9355 16.4183 6.05533C16.4183 5.89549 16.4183 5.73637 16.4075 5.57797C17.1303 5.05519 17.7542 4.40788 18.25 3.66637C17.576 3.96517 16.861 4.16104 16.1289 4.24741C16.8999 3.78593 17.4769 3.06 17.7525 2.20477C17.0276 2.63498 16.2345 2.93814 15.4074 3.10117C14.8506 2.5091 14.1142 2.11705 13.3121 1.98568C12.5101 1.85431 11.6871 1.99095 10.9705 2.37446C10.2539 2.75796 9.68367 3.36695 9.34806 4.10718C9.01245 4.84741 8.93016 5.67762 9.11392 6.46933C7.64567 6.39568 6.20932 6.0141 4.89809 5.34937C3.58686 4.68464 2.43007 3.75161 1.5028 2.61085C1.03055 3.42385 0.885904 4.38627 1.09832 5.30217C1.31075 6.21806 1.86426 7.01856 2.64616 7.54069C2.05842 7.52347 1.48349 7.36491 0.97 7.07845V7.12525C0.970233 7.97789 1.26539 8.8042 1.8054 9.46402C2.34542 10.1239 3.09705 10.5766 3.9328 10.7454C3.38911 10.8937 2.81866 10.9154 2.26528 10.8088C2.50136 11.5425 2.96082 12.1841 3.57943 12.644C4.19804 13.1038 4.94487 13.3588 5.71552 13.3734C4.94983 13.9753 4.07299 14.4203 3.13516 14.6829C2.19733 14.9456 1.21691 15.0207 0.25 14.9041C1.93887 15.9879 3.90394 16.5628 5.91064 16.5601" fill="#0B2239"/>
</g>
<defs>
<clipPath id="clip0_89_586">
<rect width="18" height="18" fill="white" transform="translate(0.25 0.25)"/>
</clipPath>
</defs>
</svg>
