<svg width="147" height="22" viewBox="0 0 147 22" fill="none" xmlns="http://www.w3.org/2000/svg">
<g clip-path="url(#clip0_2_750)">
<path d="M20.1767 0.259008V10.9695C20.1767 13.4402 19.393 15.7174 18.0737 17.5362C17.2284 18.7031 16.1614 19.6831 14.9406 20.4023C14.8237 20.4719 14.7067 20.537 14.5877 20.6022C13.2192 21.3367 11.6742 21.7539 10.0349 21.7626C10.0185 21.7626 10.0021 21.7626 9.98565 21.7626H9.77842C7.95646 21.7626 6.25145 21.2389 4.78649 20.3263C1.8771 18.5119 -0.0761719 15.1611 -0.0761719 11.3259V10.7631C-0.0761719 6.91695 1.87505 3.55321 4.78649 1.72358C4.9691 1.60842 5.15581 1.49977 5.34457 1.39764C6.67206 0.680563 8.16984 0.272047 9.75791 0.256836C9.78663 0.256836 9.81536 0.256836 9.84203 0.256836H20.1767V0.259008Z" fill="#7E9ACF"/>
<path d="M10.0355 0.259008V21.7626C10.0191 21.7626 10.0027 21.7626 9.98627 21.7626H9.77904C7.95708 21.7626 6.25207 21.2389 4.78711 20.3263V1.72358C4.96972 1.60842 5.15643 1.49977 5.34519 1.39764C6.67268 0.680563 8.17046 0.272047 9.75852 0.256836C9.78725 0.256836 9.81597 0.256836 9.84264 0.256836H10.0355V0.259008Z" fill="#78C7CE"/>
<path d="M18.0728 17.5384C17.2274 18.7053 16.1605 19.6853 14.9397 20.4045C14.8228 20.4741 14.7058 20.5392 14.5868 20.6044L10.034 11.1434L5.3457 1.39984C6.67319 0.68276 8.17097 0.274244 9.75904 0.259033L10.034 0.82835L14.9397 11.0239L18.0728 17.5384Z" fill="#84CEBF"/>
<path d="M20.1775 0.259008V10.9695C20.1775 13.4402 19.3937 15.7174 18.0744 17.5362C17.2291 18.7031 16.1622 19.6831 14.9414 20.4023V0.256836H20.1775V0.259008Z" fill="#78C7CE"/>
<path d="M40.2095 16.3503H38.0261L33.082 8.43988V16.3503H30.8986V4.80493H33.082L38.0261 12.732V4.80493H40.2095V16.3503Z" fill="#0B2239"/>
<path d="M50.3323 12.4702H44.0157C44.0668 13.1314 44.2867 13.6492 44.6715 14.0235C45.0564 14.3979 45.5296 14.585 46.0912 14.585C46.9021 14.585 47.4794 14.2169 47.823 13.4787H50.1772C49.9279 14.3604 49.4488 15.0841 48.7419 15.6497C48.035 16.2174 47.1672 16.5002 46.1383 16.5002C45.3058 16.5002 44.5596 16.3047 43.8999 15.9138C43.2401 15.5229 42.7257 14.9697 42.3566 14.2544C41.9874 13.539 41.8029 12.7135 41.8029 11.7777C41.8029 10.8315 41.9855 9.99973 42.3487 9.28438C42.712 8.56904 43.2225 8.01798 43.8763 7.63327C44.5321 7.24857 45.2842 7.05518 46.1383 7.05518C46.959 7.05518 47.6953 7.24233 48.3453 7.61663C48.9952 7.99094 49.4998 8.52329 49.8572 9.20953C50.2165 9.89784 50.3952 10.688 50.3952 11.5801C50.3932 11.9087 50.3736 12.2061 50.3323 12.4702ZM48.1332 10.9168C48.1234 10.3221 47.9192 9.84585 47.5245 9.48818C47.1299 9.1305 46.6468 8.95167 46.0735 8.95167C45.5335 8.95167 45.078 9.12427 44.7088 9.47154C44.3397 9.81882 44.1139 10.2992 44.0295 10.9168H48.1332Z" fill="#0B2239"/>
<path d="M63.9611 7.20068L61.4341 16.3505H59.0799L57.5051 9.9581L55.9304 16.3505H53.5604L51.0177 7.20068H53.2325L54.7601 14.1711L56.4134 7.20068H58.7205L60.3424 14.1545L61.87 7.20068H63.9611Z" fill="#0B2239"/>
<path d="M67.6873 9.10126V13.5285C67.6873 13.8363 67.7579 14.0588 67.8973 14.1981C68.0368 14.3374 68.2743 14.404 68.6062 14.404H69.6193V16.3525H68.2469C66.407 16.3525 65.4862 15.4063 65.4862 13.5119V9.10126H64.4573V7.20268H65.4862V4.94019H67.6853V7.20268H69.6193V9.10126H67.6873Z" fill="#0B2239"/>
<path d="M72.7868 15.9136C72.1212 15.5226 71.5989 14.9695 71.2199 14.2541C70.841 13.5388 70.6505 12.7132 70.6505 11.7775C70.6505 10.8417 70.8449 10.0161 71.2356 9.30078C71.6264 8.58543 72.1585 8.03229 72.8339 7.64134C73.5094 7.2504 74.2634 7.05493 75.0959 7.05493C75.9284 7.05493 76.6804 7.2504 77.3579 7.64134C78.0333 8.03229 78.5674 8.58543 78.9561 9.30078C79.3469 10.0161 79.5413 10.8417 79.5413 11.7775C79.5413 12.7132 79.341 13.5388 78.9404 14.2541C78.5399 14.9695 77.9999 15.5226 77.3186 15.9136C76.6372 16.3045 75.8754 16.5 75.0331 16.5C74.2005 16.5 73.4524 16.3045 72.7868 15.9136ZM76.1483 14.1793C76.4959 13.9755 76.7747 13.6698 76.9828 13.2622C77.191 12.8546 77.295 12.3597 77.295 11.7754C77.295 10.9061 77.079 10.2366 76.6471 9.76867C76.2151 9.30078 75.6889 9.0658 75.0645 9.0658C74.4401 9.0658 73.9178 9.30078 73.4976 9.76867C73.0774 10.2366 72.8653 10.9061 72.8653 11.7754C72.8653 12.6446 73.0696 13.3142 73.4819 13.7821C73.8923 14.25 74.4106 14.485 75.0331 14.485C75.4277 14.485 75.7988 14.3831 76.1483 14.1793Z" fill="#0B2239"/>
<path d="M88.4273 8.10114C89.0615 8.78945 89.3777 9.75017 89.3777 10.9833V16.3505H87.1942V11.2973C87.1942 10.5695 87.0234 10.0122 86.6798 9.62125C86.3362 9.2303 85.8689 9.03483 85.2759 9.03483C84.6731 9.03483 84.1979 9.2303 83.8484 9.62125C83.5009 10.0122 83.3261 10.5716 83.3261 11.2973V16.3505H81.1427V7.20071H83.3261V8.34028C83.6167 7.94309 83.9898 7.63324 84.4414 7.40658C84.893 7.18199 85.3898 7.06763 85.9297 7.06763C86.9625 7.06971 87.7931 7.41282 88.4273 8.10114Z" fill="#0B2239"/>
<path d="M96.8557 16.0593C96.2882 15.7848 95.8425 15.4001 95.5165 14.9073C95.1926 14.4144 95.0198 13.8654 94.9982 13.2582H96.1979C96.2528 13.8426 96.4944 14.3541 96.9283 14.795C97.3603 15.2358 97.9925 15.4562 98.827 15.4562C99.5947 15.4562 100.203 15.2483 100.651 14.8303C101.099 14.4123 101.325 13.8821 101.325 13.2416C101.325 12.7259 101.201 12.312 100.952 11.996C100.702 11.682 100.394 11.447 100.027 11.291C99.6595 11.1371 99.151 10.9666 98.5011 10.7836C97.7432 10.5674 97.1443 10.3532 96.7005 10.1473C96.2568 9.94143 95.8778 9.62118 95.5656 9.18449C95.2515 8.74988 95.0944 8.1593 95.0944 7.41484C95.0944 6.79723 95.2456 6.24408 95.5479 5.75748C95.8503 5.27088 96.2784 4.89034 96.8301 4.61584C97.3819 4.34135 98.0141 4.2041 98.7288 4.2041C99.7774 4.2041 100.624 4.47652 101.268 5.01927C101.912 5.56409 102.281 6.26488 102.379 7.12371H101.146C101.069 6.63087 100.816 6.19418 100.384 5.80947C99.9521 5.42684 99.367 5.23345 98.6326 5.23345C97.9513 5.23345 97.3838 5.42476 96.9303 5.80947C96.4767 6.19418 96.2489 6.71821 96.2489 7.38157C96.2489 7.8848 96.3726 8.29238 96.622 8.60223C96.8714 8.91207 97.1816 9.14706 97.5547 9.30718C97.9277 9.4673 98.4323 9.6399 99.0705 9.8229C99.8048 10.0412 100.4 10.2554 100.855 10.4675C101.309 10.6796 101.694 11.004 102.008 11.4387C102.322 11.8733 102.479 12.4576 102.479 13.1917C102.479 13.7531 102.338 14.2855 102.057 14.7887C101.776 15.292 101.36 15.6995 100.808 16.0094C100.256 16.3192 99.5967 16.4731 98.829 16.4731C98.0809 16.471 97.4231 16.3338 96.8557 16.0593Z" fill="#0B2239"/>
<path d="M104.698 9.10956C105.066 8.38174 105.574 7.82028 106.222 7.42518C106.87 7.03007 107.612 6.83252 108.445 6.83252C109.536 6.83252 110.438 7.11949 111.145 7.69135C111.853 8.26321 112.309 9.04302 112.515 10.0266H111.298C111.147 9.35079 110.819 8.82052 110.316 8.43789C109.813 8.05526 109.189 7.86187 108.443 7.86187C107.848 7.86187 107.314 8.00535 106.837 8.29232C106.361 8.57929 105.984 9.00559 105.71 9.57121C105.435 10.1389 105.295 10.8335 105.295 11.659C105.295 12.4846 105.433 13.1833 105.71 13.7552C105.986 14.327 106.361 14.7575 106.837 15.0444C107.312 15.3314 107.848 15.4749 108.443 15.4749C109.189 15.4749 109.813 15.2836 110.316 14.8989C110.819 14.5163 111.147 13.9797 111.298 13.2935H112.515C112.309 14.2563 111.849 15.0278 111.137 15.6122C110.424 16.1965 109.525 16.4876 108.445 16.4876C107.612 16.4876 106.872 16.2901 106.222 15.895C105.574 15.4999 105.066 14.9384 104.698 14.2106C104.331 13.4827 104.147 12.6322 104.147 11.659C104.147 10.6879 104.331 9.83739 104.698 9.10956Z" fill="#0B2239"/>
<path d="M120.634 7.24647C121.17 7.54384 121.59 7.99925 121.898 8.6127C122.206 9.22615 122.359 9.97269 122.359 10.8544V16.3505H121.24V10.9916C121.24 9.97269 120.999 9.19287 120.518 8.65636C120.037 8.11778 119.379 7.84952 118.546 7.84952C117.692 7.84952 117.011 8.13649 116.502 8.70835C115.994 9.28021 115.741 10.1224 115.741 11.2329V16.3526H114.606V3.64062H115.741V8.5711C116.021 8.00964 116.436 7.57503 116.981 7.26518C117.527 6.95534 118.142 6.80146 118.823 6.80146C119.497 6.79938 120.099 6.9491 120.634 7.24647Z" fill="#0B2239"/>
<path d="M126.505 15.8951C125.84 15.5 125.316 14.9385 124.933 14.2107C124.548 13.4829 124.357 12.6324 124.357 11.6592C124.357 10.686 124.552 9.83544 124.941 9.10762C125.329 8.37979 125.859 7.81833 126.531 7.42322C127.201 7.02812 127.953 6.83057 128.785 6.83057C129.618 6.83057 130.372 7.02812 131.047 7.42322C131.723 7.81833 132.253 8.37979 132.638 9.10762C133.02 9.83544 133.213 10.686 133.213 11.6592C133.213 12.622 133.018 13.4683 132.63 14.2024C132.241 14.9364 131.705 15.5 131.024 15.8951C130.342 16.2902 129.584 16.4877 128.752 16.4877C127.919 16.4877 127.171 16.2902 126.505 15.8951ZM130.374 15.0196C130.87 14.7389 131.273 14.3147 131.581 13.749C131.889 13.1813 132.043 12.4868 132.043 11.6612C132.043 10.8378 131.891 10.1411 131.589 9.57342C131.287 9.00572 130.886 8.58358 130.389 8.30285C129.893 8.02212 129.351 7.88279 128.767 7.88279C128.184 7.88279 127.642 8.02212 127.146 8.30285C126.649 8.58358 126.25 9.0078 125.954 9.57342C125.655 10.1411 125.508 10.8357 125.508 11.6612C125.508 12.4868 125.657 13.1813 125.954 13.749C126.25 14.3167 126.645 14.7389 127.138 15.0196C127.631 15.3004 128.169 15.4397 128.752 15.4397C129.335 15.4397 129.877 15.3004 130.374 15.0196Z" fill="#0B2239"/>
<path d="M136.918 15.8951C136.252 15.5 135.728 14.9385 135.345 14.2107C134.96 13.4829 134.77 12.6324 134.77 11.6592C134.77 10.686 134.964 9.83544 135.353 9.10762C135.742 8.37979 136.272 7.81833 136.943 7.42322C137.613 7.02812 138.365 6.83057 139.197 6.83057C140.03 6.83057 140.784 7.02812 141.459 7.42322C142.135 7.81833 142.665 8.37979 143.05 9.10762C143.433 9.83544 143.625 10.686 143.625 11.6592C143.625 12.622 143.431 13.4683 143.042 14.2024C142.653 14.9364 142.117 15.5 141.436 15.8951C140.754 16.2902 139.997 16.4877 139.164 16.4877C138.331 16.4877 137.583 16.2902 136.918 15.8951ZM140.788 15.0196C141.285 14.7389 141.687 14.3147 141.995 13.749C142.304 13.1813 142.457 12.4868 142.457 11.6612C142.457 10.8378 142.306 10.1411 142.003 9.57342C141.701 9.00572 141.3 8.58358 140.804 8.30285C140.307 8.02212 139.765 7.88279 139.182 7.88279C138.598 7.88279 138.057 8.02212 137.56 8.30285C137.063 8.58358 136.664 9.0078 136.368 9.57342C136.069 10.1411 135.922 10.8357 135.922 11.6612C135.922 12.4868 136.071 13.1813 136.368 13.749C136.664 14.3167 137.059 14.7389 137.552 15.0196C138.045 15.3004 138.583 15.4397 139.166 15.4397C139.749 15.4397 140.289 15.3004 140.788 15.0196Z" fill="#0B2239"/>
<path d="M146.838 3.63843V16.3504H145.703V3.63843H146.838Z" fill="#0B2239"/>
</g>
<defs>
<clipPath id="clip0_2_750">
<rect width="147" height="22" fill="white"/>
</clipPath>
</defs>
</svg>
