<svg width="19" height="19" viewBox="0 0 19 19" fill="none" xmlns="http://www.w3.org/2000/svg">
<g clip-path="url(#clip0_89_588)">
<path d="M16.9212 0.25H1.57875C1.22634 0.25 0.888371 0.389993 0.639182 0.639182C0.389993 0.888371 0.25 1.22634 0.25 1.57875V16.9212C0.25 17.2737 0.389993 17.6116 0.639182 17.8608C0.888371 18.11 1.22634 18.25 1.57875 18.25H16.9212C17.2737 18.25 17.6116 18.11 17.8608 17.8608C18.11 17.6116 18.25 17.2737 18.25 16.9212V1.57875C18.25 1.22634 18.11 0.888371 17.8608 0.639182C17.6116 0.389993 17.2737 0.25 16.9212 0.25ZM5.615 15.5837H2.90875V6.9875H5.615V15.5837ZM4.26 5.79625C3.95302 5.79452 3.65344 5.7019 3.39905 5.53007C3.14466 5.35823 2.94688 5.1149 2.83066 4.83077C2.71444 4.54664 2.68499 4.23444 2.74602 3.93359C2.80706 3.63274 2.95585 3.35671 3.17362 3.14034C3.39138 2.92396 3.66836 2.77695 3.9696 2.71785C4.27084 2.65874 4.58283 2.6902 4.86621 2.80824C5.14959 2.92628 5.39165 3.12563 5.56185 3.38111C5.73204 3.63659 5.82274 3.93677 5.8225 4.24375C5.8254 4.44928 5.78688 4.65328 5.70926 4.8436C5.63163 5.03393 5.51649 5.20668 5.37068 5.35155C5.22487 5.49643 5.05139 5.61046 4.86057 5.68686C4.66975 5.76326 4.4655 5.80047 4.26 5.79625ZM15.59 15.5912H12.885V10.895C12.885 9.51 12.2963 9.0825 11.5363 9.0825C10.7338 9.0825 9.94625 9.6875 9.94625 10.93V15.5912H7.24V6.99375H9.8425V8.185H9.8775C10.1388 7.65625 11.0538 6.7525 12.45 6.7525C13.96 6.7525 15.5912 7.64875 15.5912 10.2738L15.59 15.5912Z" fill="#0B2239"/>
</g>
<defs>
<clipPath id="clip0_89_588">
<rect width="18" height="18" fill="white" transform="translate(0.25 0.25)"/>
</clipPath>
</defs>
</svg>
