<svg width="19" height="19" viewBox="0 0 19 19" fill="none" xmlns="http://www.w3.org/2000/svg">
<g clip-path="url(#clip0_89_587)">
<path d="M9.75 1.8707C12.1547 1.8707 12.4395 1.88125 13.3852 1.92344C14.2641 1.96211 14.7387 2.10977 15.0551 2.23281C15.4734 2.39453 15.7758 2.59141 16.0887 2.9043C16.4051 3.2207 16.5984 3.51953 16.7602 3.93789C16.8832 4.2543 17.0309 4.73242 17.0695 5.60781C17.1117 6.55703 17.1223 6.8418 17.1223 9.24297C17.1223 11.6477 17.1117 11.9324 17.0695 12.8781C17.0309 13.757 16.8832 14.2316 16.7602 14.548C16.5984 14.9664 16.4016 15.2688 16.0887 15.5816C15.7723 15.898 15.4734 16.0914 15.0551 16.2531C14.7387 16.3762 14.2605 16.5238 13.3852 16.5625C12.4359 16.6047 12.1512 16.6152 9.75 16.6152C7.34531 16.6152 7.06055 16.6047 6.11484 16.5625C5.23594 16.5238 4.76133 16.3762 4.44492 16.2531C4.02656 16.0914 3.72422 15.8945 3.41133 15.5816C3.09492 15.2652 2.90156 14.9664 2.73984 14.548C2.6168 14.2316 2.46914 13.7535 2.43047 12.8781C2.38828 11.9289 2.37773 11.6441 2.37773 9.24297C2.37773 6.83828 2.38828 6.55352 2.43047 5.60781C2.46914 4.72891 2.6168 4.2543 2.73984 3.93789C2.90156 3.51953 3.09844 3.21719 3.41133 2.9043C3.72773 2.58789 4.02656 2.39453 4.44492 2.23281C4.76133 2.10977 5.23945 1.96211 6.11484 1.92344C7.06055 1.88125 7.34531 1.8707 9.75 1.8707ZM9.75 0.25C7.30664 0.25 7.00078 0.260547 6.04102 0.302734C5.08477 0.344922 4.42734 0.499609 3.85781 0.721094C3.26367 0.953125 2.76094 1.25898 2.26172 1.76172C1.75898 2.26094 1.45312 2.76367 1.22109 3.3543C0.999609 3.92734 0.844922 4.58125 0.802734 5.5375C0.760547 6.50078 0.75 6.80664 0.75 9.25C0.75 11.6934 0.760547 11.9992 0.802734 12.959C0.844922 13.9152 0.999609 14.5727 1.22109 15.1422C1.45312 15.7363 1.75898 16.2391 2.26172 16.7383C2.76094 17.2375 3.26367 17.5469 3.8543 17.7754C4.42734 17.9969 5.08125 18.1516 6.0375 18.1938C6.99727 18.2359 7.30312 18.2465 9.74648 18.2465C12.1898 18.2465 12.4957 18.2359 13.4555 18.1938C14.4117 18.1516 15.0691 17.9969 15.6387 17.7754C16.2293 17.5469 16.732 17.2375 17.2313 16.7383C17.7305 16.2391 18.0398 15.7363 18.2684 15.1457C18.4898 14.5727 18.6445 13.9188 18.6867 12.9625C18.7289 12.0027 18.7395 11.6969 18.7395 9.25352C18.7395 6.81016 18.7289 6.5043 18.6867 5.54453C18.6445 4.58828 18.4898 3.93086 18.2684 3.36133C18.0469 2.76367 17.741 2.26094 17.2383 1.76172C16.7391 1.2625 16.2363 0.953125 15.6457 0.724609C15.0727 0.503125 14.4188 0.348438 13.4625 0.30625C12.4992 0.260547 12.1934 0.25 9.75 0.25Z" fill="#0B2239"/>
<path d="M9.75 4.62695C7.19766 4.62695 5.12695 6.69766 5.12695 9.25C5.12695 11.8023 7.19766 13.873 9.75 13.873C12.3023 13.873 14.373 11.8023 14.373 9.25C14.373 6.69766 12.3023 4.62695 9.75 4.62695ZM9.75 12.2488C8.09414 12.2488 6.75117 10.9059 6.75117 9.25C6.75117 7.59414 8.09414 6.25117 9.75 6.25117C11.4059 6.25117 12.7488 7.59414 12.7488 9.25C12.7488 10.9059 11.4059 12.2488 9.75 12.2488Z" fill="#0B2239"/>
<path d="M15.6352 4.44414C15.6352 5.04179 15.15 5.52344 14.5559 5.52344C13.9582 5.52344 13.4766 5.03828 13.4766 4.44414C13.4766 3.84648 13.9617 3.36484 14.5559 3.36484C15.15 3.36484 15.6352 3.84999 15.6352 4.44414Z" fill="#0B2239"/>
</g>
<defs>
<clipPath id="clip0_89_587">
<rect width="18" height="18" fill="white" transform="translate(0.75 0.25)"/>
</clipPath>
</defs>
</svg>
