<svg width="19" height="19" viewBox="0 0 19 19" fill="none" xmlns="http://www.w3.org/2000/svg">
<g clip-path="url(#clip0_89_585)">
<path d="M18.75 9.25C18.75 4.27943 14.7206 0.25 9.75 0.25C4.77943 0.25 0.75 4.27943 0.75 9.25C0.75 13.7421 4.04115 17.4655 8.34375 18.1407V11.8516H6.05859V9.25H8.34375V7.26719C8.34375 5.01156 9.68742 3.76562 11.7432 3.76562C12.7276 3.76562 13.7578 3.94141 13.7578 3.94141V6.15625H12.623C11.505 6.15625 11.1562 6.85006 11.1562 7.5625V9.25H13.6523L13.2533 11.8516H11.1562V18.1407C15.4588 17.4655 18.75 13.7421 18.75 9.25Z" fill="#0B2239"/>
<path d="M13.2533 11.8516L13.6523 9.25H11.1562V7.5625C11.1562 6.85076 11.505 6.15625 12.623 6.15625H13.7578V3.94141C13.7578 3.94141 12.7279 3.76562 11.7432 3.76562C9.68742 3.76562 8.34375 5.01156 8.34375 7.26719V9.25H6.05859V11.8516H8.34375V18.1407C9.27558 18.2864 10.2244 18.2864 11.1562 18.1407V11.8516H13.2533Z" fill="white"/>
</g>
<defs>
<clipPath id="clip0_89_585">
<rect width="18" height="18" fill="white" transform="translate(0.75 0.25)"/>
</clipPath>
</defs>
</svg>
