<svg width="20" height="20" viewBox="0 0 20 20" fill="none" xmlns="http://www.w3.org/2000/svg">
<path fill-rule="evenodd" clip-rule="evenodd" d="M13.8916 10.9416C15.0333 11.7166 15.8333 12.7666 15.8333 14.1666V16.6666H18.3333C18.7916 16.6666 19.1666 16.2916 19.1666 15.8333V14.1666C19.1666 12.3499 16.1916 11.2749 13.8916 10.9416Z" fill="#7B869D"/>
<path d="M7.49998 9.99992C9.34093 9.99992 10.8333 8.50753 10.8333 6.66659C10.8333 4.82564 9.34093 3.33325 7.49998 3.33325C5.65903 3.33325 4.16665 4.82564 4.16665 6.66659C4.16665 8.50753 5.65903 9.99992 7.49998 9.99992Z" fill="#7B869D"/>
<path fill-rule="evenodd" clip-rule="evenodd" d="M12.5 9.99992C14.3416 9.99992 15.8333 8.50825 15.8333 6.66659C15.8333 4.82492 14.3416 3.33325 12.5 3.33325C12.1083 3.33325 11.7416 3.41659 11.3916 3.53325C12.0833 4.39159 12.5 5.48325 12.5 6.66659C12.5 7.84992 12.0833 8.94159 11.3916 9.79992C11.7416 9.91659 12.1083 9.99992 12.5 9.99992Z" fill="#7B869D"/>
<path fill-rule="evenodd" clip-rule="evenodd" d="M7.49998 10.8333C5.27498 10.8333 0.833313 11.9499 0.833313 14.1666V15.8333C0.833313 16.2916 1.20831 16.6666 1.66665 16.6666H13.3333C13.7916 16.6666 14.1666 16.2916 14.1666 15.8333V14.1666C14.1666 11.9499 9.72498 10.8333 7.49998 10.8333Z" fill="#7B869D"/>
</svg>
