<svg width="19" height="19" viewBox="0 0 19 19" fill="none" xmlns="http://www.w3.org/2000/svg">
<g clip-path="url(#clip0_89_589)">
<path d="M18.3915 4.88909C18.2897 4.50615 18.0891 4.15665 17.8099 3.87558C17.5306 3.59451 17.1824 3.39171 16.8001 3.2875C15.3928 2.90909 9.76782 2.90909 9.76782 2.90909C9.76782 2.90909 4.14282 2.90909 2.73555 3.2875C2.35327 3.39171 2.00507 3.59451 1.72579 3.87558C1.44651 4.15665 1.24595 4.50615 1.14419 4.88909C0.767822 6.3025 0.767822 9.25 0.767822 9.25C0.767822 9.25 0.767822 12.1975 1.14419 13.6109C1.24595 13.9938 1.44651 14.3433 1.72579 14.6244C2.00507 14.9055 2.35327 15.1083 2.73555 15.2125C4.14282 15.5909 9.76782 15.5909 9.76782 15.5909C9.76782 15.5909 15.3928 15.5909 16.8001 15.2125C17.1824 15.1083 17.5306 14.9055 17.8099 14.6244C18.0891 14.3433 18.2897 13.9938 18.3915 13.6109C18.7678 12.1975 18.7678 9.25 18.7678 9.25C18.7678 9.25 18.7678 6.3025 18.3915 4.88909Z" fill="#0B2239"/>
<path d="M7.92694 11.9265V6.57355L12.6315 9.25002L7.92694 11.9265Z" fill="white"/>
</g>
<defs>
<clipPath id="clip0_89_589">
<rect width="18" height="18" fill="white" transform="translate(0.75 0.25)"/>
</clipPath>
</defs>
</svg>
